<?xml version="1.0" encoding="utf-8"?>
<!-- Generator: Adobe Illustrator 22.1.0, SVG Export Plug-In . SVG Version: 6.00 Build 0)  -->
<svg version="1.1" xmlns="http://www.w3.org/2000/svg" xmlns:xlink="http://www.w3.org/1999/xlink" x="0px" y="0px"
	 viewBox="0 0 28.3 28.3" style="enable-background:new 0 0 28.3 28.3;" xml:space="preserve">
<style type="text/css">
	.st0{fill:#2D54A1;}
	.st1{fill:#E30613;}
	.st2{fill:#DFDB00;}
</style>
<g id="BG000" inkscape:export-filename="/media/home1/robert/svn/graphics/trunk/toolbar-icons/32x32/layer-vector.png" inkscape:export-xdpi="90" inkscape:export-ydpi="90" inkscape:version="0.48.4 r9939" sodipodi:docname="mActionAddSpreadsheetLayer.svg" xmlns:cc="http://creativecommons.org/ns#" xmlns:dc="http://purl.org/dc/elements/1.1/" xmlns:inkscape="http://www.inkscape.org/namespaces/inkscape" xmlns:rdf="http://www.w3.org/1999/02/22-rdf-syntax-ns#" xmlns:sodipodi="http://sodipodi.sourceforge.net/DTD/sodipodi-0.dtd" xmlns:svg="http://www.w3.org/2000/svg">
	<rect id="BG001" x="0" y="0" class="st0" width="28.3" height="28.3"/>
	<circle id="BG002" class="st1" cx="14.2" cy="14.2" r="12.8"/>
</g>
<g id="FG000">
	<g id="GT001">
		<path id="G001" d="M7.9,10.3c0.8-0.1,1.5-0.1,2.2-0.2c1.2-0.1,2.1-0.2,2.8-0.3c0,0.8,0,1.9,0.1,3.3c0.1,1.4,0.1,2.5,0.1,3.2
			c-0.6,0.2-1.2,0.3-1.6,0.4c-0.4,0.1-0.9,0.2-1.5,0.3c-0.6,0.1-1.1,0.2-1.6,0.2c-0.8,0.1-1.5,0.1-2.2,0c-0.7-0.1-1.4-0.2-2-0.4
			c-0.6-0.2-1.1-0.6-1.5-1c-0.4-0.4-0.8-1-1-1.6c-0.3-0.6-0.4-1.3-0.5-2C0.9,11.1,1.1,10,1.6,8.9c0.5-1,1.2-1.9,2.2-2.6
			c1-0.7,2.3-1.1,4-1.2c1.2-0.1,2.6-0.1,4.1,0.1C12,6.1,12.1,7,12.3,8c-0.4-0.1-0.7-0.2-1-0.2c-0.3,0-0.5-0.1-0.9-0.1
			c-0.3,0-0.7,0-1,0c-0.3,0-0.6,0-0.8,0C8,7.7,7.5,7.8,6.9,8.1C6.4,8.3,6,8.6,5.6,9C5.2,9.4,5,9.9,4.8,10.4
			c-0.1,0.5-0.2,1.1-0.1,1.7c0.1,0.6,0.2,1.1,0.5,1.5c0.3,0.4,0.6,0.8,1.2,1s1.1,0.3,1.7,0.2c0.5,0,1-0.2,1.6-0.4l-0.1-1.9
			c-0.4,0-0.6,0-0.6,0L8,12.7l0-1.1c0-0.1,0-0.3,0-0.5C7.9,10.9,7.9,10.6,7.9,10.3z"/>
		<path id="T001" d="M18.1,26.3c0-2.8-0.1-5.8-0.3-9.2l-3.5,0.4l0-0.9c0-0.5-0.1-1.1-0.1-1.7c1.6-0.1,3.4-0.3,5.5-0.5l2.1-0.2l2-0.2
			l1.1-0.1l0,0.8c0,0.4,0,0.8,0.1,1.1c0,0.3,0,0.5,0,0.7c-1.2,0-2.2,0.1-3,0.2l-0.6,0.1c0,1,0,1.9,0.1,2.8c0,1.2,0.1,2.4,0.2,3.6
			c0.1,1.2,0.1,2.1,0.2,2.8c-0.9,0.1-1.5,0.1-1.8,0.1C19.8,26.1,19.2,26.2,18.1,26.3z"/>
	</g>
	<g id="GT001_1_">
		<path id="G002" class="st2" d="M9,9.1C9.8,9,10.5,9,11.2,8.9c1.2-0.1,2.1-0.2,2.8-0.3c0,0.8,0,1.9,0.1,3.3c0,1.4,0.1,2.5,0.1,3.2
			c-0.6,0.2-1.2,0.3-1.6,0.4c-0.4,0.1-0.9,0.2-1.5,0.3c-0.6,0.1-1.1,0.2-1.6,0.2c-0.8,0.1-1.5,0.1-2.2,0c-0.7-0.1-1.4-0.2-2-0.4
			c-0.6-0.2-1.1-0.6-1.5-1c-0.4-0.4-0.8-1-1-1.6c-0.3-0.6-0.4-1.3-0.5-2C2.1,9.9,2.3,8.8,2.8,7.8C3.2,6.7,4,5.9,5,5.2S7.3,4.1,9,4
			c1.2-0.1,2.6-0.1,4.1,0.1c0.1,0.8,0.2,1.7,0.4,2.8c-0.4-0.1-0.7-0.2-1-0.2c-0.3,0-0.5-0.1-0.9-0.1c-0.3,0-0.7,0-1,0s-0.6,0-0.8,0
			C9.2,6.5,8.6,6.7,8.1,6.9c-0.5,0.2-1,0.5-1.3,0.9C6.4,8.2,6.1,8.7,6,9.3c-0.1,0.5-0.2,1.1-0.1,1.7C5.9,11.5,6,12,6.3,12.4
			c0.3,0.4,0.6,0.8,1.2,1c0.5,0.2,1.1,0.3,1.7,0.2c0.5,0,1-0.2,1.6-0.4l-0.1-1.9c-0.4,0-0.6,0-0.6,0l-0.9,0.1l0-1.1
			c0-0.1,0-0.3,0-0.5C9.1,9.7,9,9.5,9,9.1z"/>
		<path id="T002" class="st2" d="M19.3,25.1c0-2.8-0.1-5.8-0.3-9.1l-3.5,0.4l0-0.9c0-0.5-0.1-1.1-0.1-1.7c1.6-0.1,3.4-0.3,5.5-0.5
			l2.1-0.2l2-0.2l1.1-0.1l0,0.8c0,0.4,0,0.8,0.1,1.1s0,0.5,0,0.7c-1.2,0-2.2,0.1-3,0.2l-0.6,0.1c0,1,0,1.9,0,2.8
			c0,1.2,0.1,2.4,0.2,3.6c0.1,1.2,0.1,2.1,0.2,2.8c-0.9,0.1-1.5,0.1-1.8,0.1C21,24.9,20.3,25,19.3,25.1z"/>
	</g>
</g>
</svg>
